STARTFONT 2.1
COMMENT All rights reversed
FONT atari-7x11
SIZE 12 72 72
FONTBOUNDINGBOX 8 14 0 -1
STARTPROPERTIES 11
FOUNDRY "Fine"
FAMILY_NAME ""
WEIGHT_NAME "Medium"
SLANT "R"
SETWIDTH_NAME "Normal"
SPACING "c"
CHARSET_REGISTRY "ISO-8859"
CHARSET_ENCODING "1"
COPYRIGHT "Public domain font"
FONT_ASCENT  13
FONT_DESCENT 1
ENDPROPERTIES
CHARS 80
STARTCHAR C040
ENCODING 32
SWIDTH 666 0
DWIDTH 8 0
BBX 0 0 0 0
BITMAP
ENDCHAR
STARTCHAR C041
ENCODING 33
SWIDTH 666 0
DWIDTH 8 0
BBX 1 13 3 0
BITMAP
80
80
80
80
80
80
80
80
80
80
00
00
80
ENDCHAR
STARTCHAR C042
ENCODING 34
SWIDTH 666 0
DWIDTH 8 0
BBX 6 4 1 9
BITMAP
48
fc
6c
d8
ENDCHAR
STARTCHAR C043
ENCODING 35
SWIDTH 666 0
DWIDTH 8 0
BBX 8 12 0 0
BITMAP
12
12
12
7f
24
24
24
fe
48
48
48
48
ENDCHAR
STARTCHAR C044
ENCODING 36
SWIDTH 666 0
DWIDTH 8 0
BBX 7 14 0 -1
BITMAP
10
7c
92
90
90
50
30
18
14
12
12
92
7c
10
ENDCHAR
STARTCHAR C045
ENCODING 37
SWIDTH 666 0
DWIDTH 8 0
BBX 6 12 0 0
BITMAP
44
e4
48
08
10
10
20
20
40
48
9c
88
ENDCHAR
STARTCHAR C046
ENCODING 38
SWIDTH 666 0
DWIDTH 8 0
BBX 7 13 0 0
BITMAP
38
44
82
82
82
84
80
46
62
94
88
94
62
ENDCHAR
STARTCHAR C047
ENCODING 39
SWIDTH 666 0
DWIDTH 8 0
BBX 3 4 2 9
BITMAP
40
e0
60
c0
ENDCHAR
STARTCHAR C050
ENCODING 40
SWIDTH 666 0
DWIDTH 8 0
BBX 4 13 0 0
BITMAP
30
40
80
80
80
80
80
80
80
80
80
40
30
ENDCHAR
STARTCHAR C051
ENCODING 41
SWIDTH 666 0
DWIDTH 8 0
BBX 4 13 0 0
BITMAP
c0
20
10
10
10
10
10
10
10
10
10
20
c0
ENDCHAR
STARTCHAR C052
ENCODING 42
SWIDTH 666 0
DWIDTH 8 0
BBX 7 7 0 3
BITMAP
92
54
38
fe
38
54
92
ENDCHAR
STARTCHAR C053
ENCODING 43
SWIDTH 666 0
DWIDTH 8 0
BBX 7 9 0 2
BITMAP
10
10
10
10
fe
10
10
10
10
ENDCHAR
STARTCHAR C054
ENCODING 44
SWIDTH 666 0
DWIDTH 8 0
BBX 3 4 2 0
BITMAP
40
e0
60
c0
ENDCHAR
STARTCHAR C055
ENCODING 45
SWIDTH 666 0
DWIDTH 8 0
BBX 7 1 0 6
BITMAP
fe
ENDCHAR
STARTCHAR C056
ENCODING 46
SWIDTH 666 0
DWIDTH 8 0
BBX 3 3 2 0
BITMAP
40
e0
40
ENDCHAR
STARTCHAR C057
ENCODING 47
SWIDTH 666 0
DWIDTH 8 0
BBX 6 12 0 0
BITMAP
04
04
08
08
10
10
20
20
40
40
80
80
ENDCHAR
STARTCHAR C060
ENCODING 48
SWIDTH 666 0
DWIDTH 8 0
BBX 7 13 0 0
BITMAP
38
44
82
82
86
8a
92
a2
c2
82
82
44
38
ENDCHAR
STARTCHAR C061
ENCODING 49
SWIDTH 666 0
DWIDTH 8 0
BBX 7 13 0 0
BITMAP
10
70
10
10
10
10
10
10
10
10
10
10
fe
ENDCHAR
STARTCHAR C062
ENCODING 50
SWIDTH 666 0
DWIDTH 8 0
BBX 7 13 0 0
BITMAP
38
44
82
82
82
02
04
08
10
20
42
82
fe
ENDCHAR
STARTCHAR C063
ENCODING 51
SWIDTH 666 0
DWIDTH 8 0
BBX 7 13 0 0
BITMAP
38
44
82
82
02
04
38
04
02
82
82
44
38
ENDCHAR
STARTCHAR C064
ENCODING 52
SWIDTH 666 0
DWIDTH 8 0
BBX 7 13 0 0
BITMAP
04
0c
14
24
44
84
84
fe
04
04
04
04
0e
ENDCHAR
STARTCHAR C065
ENCODING 53
SWIDTH 666 0
DWIDTH 8 0
BBX 7 13 0 0
BITMAP
fe
80
80
80
b8
c4
82
02
02
82
82
44
38
ENDCHAR
STARTCHAR C066
ENCODING 54
SWIDTH 666 0
DWIDTH 8 0
BBX 7 13 0 0
BITMAP
1c
22
42
40
80
80
b8
c4
82
82
82
44
38
ENDCHAR
STARTCHAR C067
ENCODING 55
SWIDTH 666 0
DWIDTH 8 0
BBX 7 13 0 0
BITMAP
fe
82
02
04
04
08
08
10
10
20
20
40
40
ENDCHAR
STARTCHAR C070
ENCODING 56
SWIDTH 666 0
DWIDTH 8 0
BBX 7 13 0 0
BITMAP
38
44
82
82
82
44
38
44
82
82
82
44
38
ENDCHAR
STARTCHAR C071
ENCODING 57
SWIDTH 666 0
DWIDTH 8 0
BBX 7 13 0 0
BITMAP
38
44
82
82
42
3e
02
02
02
02
02
84
78
ENDCHAR
STARTCHAR C072
ENCODING 58
SWIDTH 666 0
DWIDTH 8 0
BBX 1 7 3 2
BITMAP
80
80
00
00
00
80
80
ENDCHAR
STARTCHAR C073
ENCODING 59
SWIDTH 666 0
DWIDTH 8 0
BBX 2 8 2 1
BITMAP
40
40
00
00
40
40
40
80
ENDCHAR
STARTCHAR C074
ENCODING 60
SWIDTH 666 0
DWIDTH 8 0
BBX 7 13 0 0
BITMAP
02
04
08
10
20
40
80
40
20
10
08
04
02
ENDCHAR
STARTCHAR C075
ENCODING 61
SWIDTH 666 0
DWIDTH 8 0
BBX 7 5 0 4
BITMAP
fe
00
00
00
fe
ENDCHAR
STARTCHAR C076
ENCODING 62
SWIDTH 666 0
DWIDTH 8 0
BBX 7 13 0 0
BITMAP
80
40
20
10
08
04
02
04
08
10
20
40
80
ENDCHAR
STARTCHAR C077
ENCODING 63
SWIDTH 666 0
DWIDTH 8 0
BBX 7 13 0 0
BITMAP
38
44
82
82
02
04
08
10
10
10
00
00
10
ENDCHAR
STARTCHAR C100
ENCODING 64
SWIDTH 666 0
DWIDTH 8 0
BBX 7 13 0 0
BITMAP
38
44
82
9a
a6
a2
a2
a2
a6
9a
80
40
3e
ENDCHAR
STARTCHAR C101
ENCODING 65
SWIDTH 666 0
DWIDTH 8 0
BBX 7 13 0 0
BITMAP
10
28
28
28
28
44
44
44
7c
82
82
82
82
ENDCHAR
STARTCHAR C102
ENCODING 66
SWIDTH 666 0
DWIDTH 8 0
BBX 7 13 0 0
BITMAP
f8
44
42
42
44
78
44
42
42
42
42
44
f8
ENDCHAR
STARTCHAR C103
ENCODING 67
SWIDTH 666 0
DWIDTH 8 0
BBX 7 13 0 0
BITMAP
1c
22
42
80
80
80
80
80
80
80
42
22
1c
ENDCHAR
STARTCHAR C104
ENCODING 68
SWIDTH 666 0
DWIDTH 8 0
BBX 7 13 0 0
BITMAP
f8
44
42
42
42
42
42
42
42
42
42
44
f8
ENDCHAR
STARTCHAR C105
ENCODING 69
SWIDTH 666 0
DWIDTH 8 0
BBX 7 13 0 0
BITMAP
fe
42
40
40
40
40
78
40
40
40
40
42
fe
ENDCHAR
STARTCHAR C106
ENCODING 70
SWIDTH 666 0
DWIDTH 8 0
BBX 7 13 0 0
BITMAP
fe
42
40
40
40
40
78
40
40
40
40
40
e0
ENDCHAR
STARTCHAR C107
ENCODING 71
SWIDTH 666 0
DWIDTH 8 0
BBX 7 13 0 0
BITMAP
3e
42
80
80
80
80
8e
84
84
84
84
44
3c
ENDCHAR
STARTCHAR C110
ENCODING 72
SWIDTH 666 0
DWIDTH 8 0
BBX 7 13 0 0
BITMAP
ee
44
44
44
44
44
7c
44
44
44
44
44
ee
ENDCHAR
STARTCHAR C111
ENCODING 73
SWIDTH 666 0
DWIDTH 8 0
BBX 7 13 0 0
BITMAP
fe
10
10
10
10
10
10
10
10
10
10
10
fe
ENDCHAR
STARTCHAR C112
ENCODING 74
SWIDTH 666 0
DWIDTH 8 0
BBX 7 13 0 0
BITMAP
fe
04
04
04
04
04
04
04
04
04
84
88
70
ENDCHAR
STARTCHAR C113
ENCODING 75
SWIDTH 666 0
DWIDTH 8 0
BBX 7 13 0 0
BITMAP
ee
44
48
48
50
50
60
50
50
48
48
44
ee
ENDCHAR
STARTCHAR C114
ENCODING 76
SWIDTH 666 0
DWIDTH 8 0
BBX 7 13 0 0
BITMAP
e0
40
40
40
40
40
40
40
40
40
42
42
fe
ENDCHAR
STARTCHAR C115
ENCODING 77
SWIDTH 666 0
DWIDTH 8 0
BBX 7 13 0 0
BITMAP
82
c6
aa
92
92
82
82
82
82
82
82
82
82
ENDCHAR
STARTCHAR C116
ENCODING 78
SWIDTH 666 0
DWIDTH 8 0
BBX 7 13 0 0
BITMAP
82
82
c2
a2
92
8a
86
82
82
82
82
82
82
ENDCHAR
STARTCHAR C117
ENCODING 79
SWIDTH 666 0
DWIDTH 8 0
BBX 7 13 0 0
BITMAP
38
44
82
82
82
82
82
82
82
82
82
44
38
ENDCHAR
STARTCHAR C120
ENCODING 80
SWIDTH 666 0
DWIDTH 8 0
BBX 7 13 0 0
BITMAP
fc
42
42
42
7c
40
40
40
40
40
40
40
e0
ENDCHAR
STARTCHAR C121
ENCODING 81
SWIDTH 666 0
DWIDTH 8 0
BBX 7 14 0 -1
BITMAP
38
44
82
82
82
82
82
82
82
82
92
4c
3c
02
ENDCHAR
STARTCHAR C122
ENCODING 82
SWIDTH 666 0
DWIDTH 8 0
BBX 7 13 0 0
BITMAP
fc
42
42
42
7c
60
50
50
48
48
44
44
ee
ENDCHAR
STARTCHAR C123
ENCODING 83
SWIDTH 666 0
DWIDTH 8 0
BBX 7 13 0 0
BITMAP
3a
46
82
80
40
20
10
08
04
02
82
c4
b8
ENDCHAR
STARTCHAR C124
ENCODING 84
SWIDTH 666 0
DWIDTH 8 0
BBX 7 13 0 0
BITMAP
fe
92
10
10
10
10
10
10
10
10
10
10
38
ENDCHAR
STARTCHAR C125
ENCODING 85
SWIDTH 666 0
DWIDTH 8 0
BBX 7 13 0 0
BITMAP
ee
44
44
44
44
44
44
44
44
44
44
44
38
ENDCHAR
STARTCHAR C126
ENCODING 86
SWIDTH 666 0
DWIDTH 8 0
BBX 7 13 0 0
BITMAP
82
82
82
82
44
44
44
44
28
28
28
28
10
ENDCHAR
STARTCHAR C127
ENCODING 87
SWIDTH 666 0
DWIDTH 8 0
BBX 7 13 0 0
BITMAP
82
82
82
82
82
82
82
82
92
92
aa
c6
82
ENDCHAR
STARTCHAR C130
ENCODING 88
SWIDTH 666 0
DWIDTH 8 0
BBX 7 13 0 0
BITMAP
82
82
82
44
44
28
10
28
44
44
82
82
82
ENDCHAR
STARTCHAR C131
ENCODING 89
SWIDTH 666 0
DWIDTH 8 0
BBX 7 13 0 0
BITMAP
82
82
82
44
44
28
28
10
10
10
10
10
38
ENDCHAR
STARTCHAR C132
ENCODING 90
SWIDTH 666 0
DWIDTH 8 0
BBX 7 13 0 0
BITMAP
fe
82
02
02
04
08
10
20
40
80
80
82
fe
ENDCHAR
STARTCHAR C133
ENCODING 91
SWIDTH 666 0
DWIDTH 8 0
BBX 4 13 0 0
BITMAP
f0
80
80
80
80
80
80
80
80
80
80
80
f0
ENDCHAR
STARTCHAR C134
ENCODING 92
SWIDTH 666 0
DWIDTH 8 0
BBX 6 12 0 0
BITMAP
80
80
40
40
20
20
10
10
08
08
04
04
ENDCHAR
STARTCHAR C135
ENCODING 93
SWIDTH 666 0
DWIDTH 8 0
BBX 4 13 0 0
BITMAP
f0
10
10
10
10
10
10
10
10
10
10
10
f0
ENDCHAR
STARTCHAR C136
ENCODING 94
SWIDTH 666 0
DWIDTH 8 0
BBX 7 4 0 9
BITMAP
10
28
44
82
ENDCHAR
STARTCHAR C137
ENCODING 95
SWIDTH 666 0
DWIDTH 8 0
BBX 7 1 0 0
BITMAP
fe
ENDCHAR
STARTCHAR C141
ENCODING 97
SWIDTH 666 0
DWIDTH 8 0
BBX 7 8 0 0
BITMAP
78
84
04
7c
84
84
84
7a
ENDCHAR
STARTCHAR C142
ENCODING 98
SWIDTH 666 0
DWIDTH 8 0
BBX 7 12 0 0
BITMAP
c0
40
40
40
78
44
42
42
42
42
44
f8
ENDCHAR
STARTCHAR C143
ENCODING 99
SWIDTH 666 0
DWIDTH 8 0
BBX 7 8 0 0
BITMAP
38
44
82
80
80
82
44
38
ENDCHAR
STARTCHAR C144
ENCODING 100
SWIDTH 666 0
DWIDTH 8 0
BBX 7 13 0 0
BITMAP
06
04
04
04
04
3c
44
84
84
84
84
44
3e
ENDCHAR
STARTCHAR C145
ENCODING 101
SWIDTH 666 0
DWIDTH 8 0
BBX 7 8 0 0
BITMAP
38
44
82
fc
80
80
42
3c
ENDCHAR
STARTCHAR C146
ENCODING 102
SWIDTH 666 0
DWIDTH 8 0
BBX 7 13 0 0
BITMAP
1c
22
20
20
f8
20
20
20
20
20
20
20
70
ENDCHAR
STARTCHAR C147
ENCODING 103
SWIDTH 666 0
DWIDTH 8 0
BBX 7 9 0 -1
BITMAP
38
44
82
82
42
3e
02
82
7c
ENDCHAR
STARTCHAR C150
ENCODING 104
SWIDTH 666 0
DWIDTH 8 0
BBX 6 13 1 0
BITMAP
80
80
80
80
80
f0
88
84
84
84
84
84
84
ENDCHAR
STARTCHAR C151
ENCODING 105
SWIDTH 666 0
DWIDTH 8 0
BBX 7 11 0 0
BITMAP
10
10
00
70
10
10
10
10
10
10
fe
ENDCHAR
STARTCHAR C152
ENCODING 106
SWIDTH 666 0
DWIDTH 8 0
BBX 6 12 0 -1
BITMAP
04
04
00
1c
04
04
04
04
04
84
44
38
ENDCHAR
STARTCHAR C153
ENCODING 107
SWIDTH 666 0
DWIDTH 8 0
BBX 7 13 0 0
BITMAP
c0
40
42
44
48
50
60
50
50
48
48
44
ee
ENDCHAR
STARTCHAR C154
ENCODING 108
SWIDTH 666 0
DWIDTH 8 0
BBX 7 13 0 0
BITMAP
f0
10
10
10
10
10
10
10
10
10
10
10
fe
ENDCHAR
STARTCHAR C155
ENCODING 109
SWIDTH 666 0
DWIDTH 8 0
BBX 7 8 0 0
BITMAP
6c
92
92
92
92
92
92
92
ENDCHAR
STARTCHAR C156
ENCODING 110
SWIDTH 666 0
DWIDTH 8 0
BBX 7 8 0 0
BITMAP
b8
44
44
44
44
44
44
ee
ENDCHAR
STARTCHAR C157
ENCODING 111
SWIDTH 666 0
DWIDTH 8 0
BBX 7 8 0 0
BITMAP
38
44
82
82
82
82
44
38
ENDCHAR
STARTCHAR C160
ENCODING 112
SWIDTH 666 0
DWIDTH 8 0
BBX 7 9 0 -1
BITMAP
f8
84
82
82
82
84
f8
80
80
ENDCHAR
ENDFONT
